<svg xmlns="http://www.w3.org/2000/svg" viewBox="0 0 360 150" width="360" height="150" role="img" aria-label="나무와 새 일러스트">

  <!-- 새 -->
  <g transform="translate(4,-4) scale(0.86)">
    <path d="M78 66 C 70 76, 66 88, 70 98 C 78 89, 85 78, 88 68 Z" fill="#7FC2E8"/>
    <path d="M14 84 L46 64 L50 88 Z" fill="#8CC9EC"/>
    <path d="M36 80 C 48 58, 72 44, 96 43 C 110 42, 120 47, 121 55
             C 122 64, 111 70, 96 71 C 74 72, 52 76, 36 84 Z" fill="#9FD3F0"/>
    <circle cx="112" cy="53" r="15" fill="#9FD3F0"/>
    <path d="M125 49 L138 54 L125 59 Z" fill="#F0C48A"/>
    <path d="M66 54 C 62 33, 76 14, 98 8 C 86 25, 82 41, 87 57 Z" fill="#7FC2E8"/>
    <circle cx="116" cy="49" r="2.5" fill="#4E6B7A"/>
  </g>

  <!-- 나무 -->
  <g>
    <!-- 1. 둥근 나무 -->
    <rect x="143.5" y="118" width="9" height="18" rx="3" fill="#C9AE80"/>
    <ellipse cx="148" cy="100" rx="20" ry="25" fill="#BFD87F"/>

    <!-- 2. 연한 침엽수 -->
    <rect x="186" y="120" width="8" height="16" rx="3" fill="#C9AE80"/>
    <path d="M190 62 L208 94 L172 94 Z" fill="#DCE9BC"/>
    <path d="M190 80 L213 122 L167 122 Z" fill="#DCE9BC"/>

    <!-- 3. 키 큰 둥근 나무 -->
    <rect x="227.5" y="116" width="9" height="20" rx="3" fill="#C9AE80"/>
    <ellipse cx="232" cy="94" rx="19" ry="29" fill="#A9C95F"/>

    <!-- 4. 작은 침엽수 -->
    <rect x="268.5" y="122" width="7" height="14" rx="3" fill="#C9AE80"/>
    <path d="M272 84 L286 110 L258 110 Z" fill="#C6DC93"/>
    <path d="M272 98 L289 126 L255 126 Z" fill="#C6DC93"/>

    <!-- 5. 뒤쪽 큰 나무 -->
    <rect x="315.5" y="116" width="9" height="20" rx="3" fill="#C9AE80"/>
    <ellipse cx="320" cy="94" rx="22" ry="30" fill="#B4D072"/>

    <!-- 6. 앞쪽 작은 침엽수 -->
    <rect x="297" y="126" width="6" height="10" rx="3" fill="#C9AE80"/>
    <path d="M300 100 L312 122 L288 122 Z" fill="#DCE9BC"/>
    <path d="M300 110 L315 132 L285 132 Z" fill="#DCE9BC"/>
  </g>
</svg>
